<?xml version="1.0" encoding="iso-8859-1"?>
<!-- Uploaded to: SVG Repo, www.svgrepo.com, Generator: SVG Repo Mixer Tools -->
<!DOCTYPE svg PUBLIC "-//W3C//DTD SVG 1.1//EN" "http://www.w3.org/Graphics/SVG/1.1/DTD/svg11.dtd">
<svg fill="#000000" version="1.1" id="Capa_1" xmlns="http://www.w3.org/2000/svg" xmlns:xlink="http://www.w3.org/1999/xlink" 
	 width="800px" height="800px" viewBox="0 0 820 820" xml:space="preserve">
<g>
	<g>
		<path d="M730,655.049c0.1-15-5.6-29.2-16.2-40c-10.6-10.7-24.8-16.6-39.8-16.6H54.2v112.1h618.7
			C704.1,710.549,729.7,685.65,730,655.049z"/>
		<path d="M25,800.549h647.5c80.7,0,147.2-64.899,147.5-145.6c0.2-80.7-65.4-146.5-146-146.5H25c-13.8,0-25,11.2-25,25v10
			c0,13.8,11.2,25,25,25h649c27.5,0,52.1,13,67.8,33.2c11.601,14.8,18.4,33.5,18.2,53.699c-0.2,19.5-7,37.4-18.2,51.7
			c-16,20.4-41.1,33.5-68.899,33.5H25c-13.8,0-25,11.2-25,25v10C0,789.349,11.2,800.549,25,800.549z"/>
		<path d="M301.2,478.45c3.899,0.399,151.7,0.399,155.6,0c67.4-7.5,120.2-78.401,120.2-164.8c0-91.4-59.1-165.5-132-165.5
			c-15.6,0-30.6,3.4-44.5,9.6c-4.5,2-9.2,3.4-14,4.1c-0.1-3.5,0-7.2,0.4-11.4c2.3-29.7,18.899-59.2,43.8-75.7
			c6.7-4.5,9.6-13.3,5.399-20.5c-3.899-6.7-13.699-9.9-20.5-5.4c-36.3,24.1-58.199,65.7-58.8,108.6c-13.7-6-28.399-9.3-43.7-9.3
			c-72.899,0-132,74.1-132,165.5C181,400.049,233.8,470.95,301.2,478.45z"/>
		<path d="M320.7,131.349c12.7,1.4,23.6-9.3,22.1-22c-3.3-29.8-20.5-78.9-96.3-89.7c-12.8-1.8-24,8.9-22.7,21.8
			C226.9,72.049,243.8,122.649,320.7,131.349z"/>
	</g>
</g>
</svg>